# xmcd
#
# Track frame offsets: 
#        183
#        20018
#        44085
#        59990
#
# Disc length: 1067 seconds
#
# Revision: 7
# Processed by: cddbd v1.5.2PL0 Copyright (c) Steve Scherf et al.
# Submitted via: ExactAudioCopy v0.99pb5
#
DISCID=3d042904
DTITLE=Joshua Kadison - Jessie
DYEAR=1993
DGENRE=Blues
TTITLE0=Jessie (Edit)
TTITLE1=Jessie (Album Version)
TTITLE2=When A Woman Cries
TTITLE3=All I Ever Ask
EXTD=YEAR: 1993 ID3G:   0
EXTT0=
EXTT1=
EXTT2=
EXTT3=
PLAYORDER=
